<?xml version="1.0" standalone="no"?>
<!DOCTYPE svg PUBLIC "-//W3C//DTD SVG 20010904//EN"
 "http://www.w3.org/TR/2001/REC-SVG-20010904/DTD/svg10.dtd">
<svg version="1.0" xmlns="http://www.w3.org/2000/svg"
 width="193.000000pt" height="259.000000pt" viewBox="0 0 193.000000 259.000000"
 preserveAspectRatio="xMidYMid meet">
<metadata>
Created by potrace 1.16, written by Peter Selinger 2001-2019
</metadata>
<g transform="translate(0.000000,259.000000) scale(0.100000,-0.100000)"
fill="#000000" stroke="none">
<path d="M874 2470 c-11 -4 -37 -27 -57 -51 -36 -42 -37 -44 -37 -127 l0 -85
-47 8 c-116 21 -184 -2 -219 -73 -17 -33 -19 -68 -22 -332 -2 -162 -7 -299
-11 -303 -5 -5 -24 1 -42 12 -22 13 -51 21 -81 21 -65 0 -103 -33 -124 -108
-24 -90 -46 -145 -96 -250 -29 -59 -30 -69 -25 -145 5 -73 32 -181 72 -287 7
-19 23 -62 36 -95 63 -167 152 -312 264 -426 128 -132 157 -139 572 -139 372
0 387 3 484 89 64 57 104 130 120 221 13 68 25 1512 14 1558 -9 37 -71 98
-115 112 -34 11 -49 11 -83 1 -87 -26 -81 -33 -87 119 -6 150 -18 183 -83 217
-42 22 -125 22 -157 0 -34 -24 -48 -21 -78 14 -14 18 -41 38 -59 45 -36 15
-106 17 -139 4z m140 -90 c21 -20 21 -28 26 -566 4 -470 7 -546 20 -554 22
-14 36 -12 54 6 14 14 16 75 16 520 l0 506 29 29 c39 39 100 41 136 4 l25 -24
0 -524 c0 -492 1 -526 18 -547 23 -28 59 -20 73 17 5 13 9 176 9 364 l0 340
25 24 c36 37 97 35 136 -4 l29 -29 0 -659 c0 -863 -7 -935 -99 -1031 -83 -86
-84 -87 -426 -90 -410 -5 -440 2 -557 126 -129 137 -205 277 -287 529 -82 251
-81 235 -34 339 50 110 78 185 93 244 7 25 17 51 22 58 23 27 96 7 123 -34 27
-42 27 -94 1 -229 -30 -150 -32 -198 -11 -248 21 -50 64 -88 95 -85 l25 3 5
618 5 619 28 24 c39 33 99 33 132 -1 24 -23 25 -30 25 -147 2 -616 4 -669 24
-684 26 -18 32 -18 56 6 19 19 20 33 20 536 l0 516 30 30 c27 27 36 30 72 25
22 -3 50 -15 62 -27z"/>
</g>
</svg>
