<?xml version="1.0" standalone="no"?>
<!DOCTYPE svg PUBLIC "-//W3C//DTD SVG 20010904//EN"
 "http://www.w3.org/TR/2001/REC-SVG-20010904/DTD/svg10.dtd">
<svg version="1.0" xmlns="http://www.w3.org/2000/svg"
 width="198.000000pt" height="261.000000pt" viewBox="0 0 198.000000 261.000000"
 preserveAspectRatio="xMidYMid meet">
<metadata>
Created by potrace 1.16, written by Peter Selinger 2001-2019
</metadata>
<g transform="translate(0.000000,261.000000) scale(0.100000,-0.100000)"
fill="#000000" stroke="none">
<path d="M948 1786 c-34 -15 -78 -56 -78 -72 0 -19 -33 -26 -64 -14 -40 15
-76 12 -122 -9 -61 -28 -84 -72 -84 -159 0 -39 -4 -73 -10 -77 -5 -3 -19 4
-30 15 -94 94 -208 77 -238 -36 -27 -100 -39 -132 -101 -270 -49 -108 -51
-149 -16 -261 13 -43 35 -114 49 -158 30 -96 109 -259 174 -359 65 -99 202
-233 282 -276 l65 -35 288 -3 c322 -3 356 1 443 61 54 37 127 136 144 194 39
132 38 129 42 683 3 509 2 547 -15 578 -29 54 -70 72 -161 72 l-79 0 -34 40
c-21 24 -49 44 -73 51 -40 12 -125 5 -135 -12 -9 -14 -43 -11 -52 5 -28 47
-132 70 -195 42z m140 -91 c22 -26 22 -28 22 -356 l0 -331 -29 -29 c-36 -36
-86 -39 -125 -8 l-26 20 0 340 c0 222 4 347 11 360 24 46 108 48 147 4z m254
-32 c17 -15 18 -40 18 -344 l0 -328 -26 -20 c-34 -27 -84 -27 -118 0 l-26 20
0 328 c0 300 2 329 18 343 34 31 100 32 134 1z m-517 -58 l25 -24 0 -264 c0
-251 -1 -266 -20 -290 -27 -34 -78 -44 -118 -23 -16 8 -32 23 -36 31 -3 9 -6
137 -6 285 l0 269 26 20 c38 30 98 28 129 -4z m775 -35 c19 -19 20 -33 20
-264 l0 -245 -26 -20 c-35 -27 -93 -28 -121 -1 -30 27 -35 75 -31 306 3 182 5
204 22 223 26 29 107 30 136 1z m-1104 -144 c31 -31 34 -39 34 -92 0 -33 -11
-112 -25 -177 -29 -137 -31 -186 -9 -251 19 -54 25 -58 179 -106 124 -39 193
-77 272 -153 69 -65 105 -74 111 -26 7 56 -181 197 -325 244 -56 18 -68 28
-60 50 4 10 15 11 45 4 28 -6 56 -4 97 7 55 14 59 13 79 -4 37 -34 69 -45 128
-45 41 1 67 7 93 23 l35 22 30 -22 c23 -16 46 -22 88 -23 64 0 92 11 139 55
29 29 33 29 68 18 23 -8 57 -10 91 -5 l54 6 0 -239 c0 -230 -1 -243 -26 -318
-31 -98 -53 -132 -111 -184 -75 -66 -110 -72 -420 -68 -253 3 -270 4 -308 25
-189 102 -361 361 -460 689 -25 82 -45 160 -45 173 0 13 20 68 45 123 25 54
57 136 71 181 15 45 30 92 35 105 13 34 54 29 95 -12z"/>
</g>
</svg>
