<?xml version="1.0" standalone="no"?>
<!DOCTYPE svg PUBLIC "-//W3C//DTD SVG 20010904//EN"
 "http://www.w3.org/TR/2001/REC-SVG-20010904/DTD/svg10.dtd">
<svg version="1.0" xmlns="http://www.w3.org/2000/svg"
 width="156.000000pt" height="261.000000pt" viewBox="0 0 156.000000 261.000000"
 preserveAspectRatio="xMidYMid meet">
<metadata>
Created by potrace 1.16, written by Peter Selinger 2001-2019
</metadata>
<g transform="translate(0.000000,261.000000) scale(0.100000,-0.100000)"
fill="#000000" stroke="none">
<path d="M838 2535 c-55 -37 -69 -69 -94 -215 -8 -47 -18 -105 -23 -130 -15
-77 -41 -213 -52 -270 -5 -30 -14 -75 -18 -100 -5 -25 -14 -79 -21 -120 -15
-90 -26 -123 -42 -118 -6 2 -24 58 -40 124 -16 65 -32 133 -37 149 -5 17 -28
111 -51 210 -78 339 -88 373 -126 411 -55 55 -161 55 -215 1 -29 -29 -30 -33
-26 -96 3 -36 10 -86 16 -111 6 -25 18 -83 27 -130 22 -120 29 -155 48 -240 9
-41 21 -100 25 -130 10 -65 48 -260 61 -310 5 -19 12 -67 15 -105 l6 -71 -74
-114 c-41 -63 -82 -139 -91 -167 -41 -124 18 -424 123 -628 49 -95 172 -220
262 -264 l66 -32 299 3 c284 3 301 4 339 25 82 44 153 135 194 248 21 59 30
217 36 650 l7 440 -22 28 c-34 43 -71 57 -155 57 -68 0 -75 2 -75 20 0 11 -18
38 -39 59 -43 43 -93 57 -161 46 l-40 -7 0 70 c0 38 4 82 10 98 5 16 14 67 19
114 5 47 12 99 16 115 17 88 26 143 41 266 20 158 15 184 -45 225 -49 33 -113
33 -163 -1z m136 -74 c17 -18 16 -30 -14 -233 -18 -117 -35 -240 -40 -273 -27
-201 -62 -423 -69 -439 -6 -15 -18 -20 -53 -21 -24 0 -63 -9 -86 -19 -23 -11
-45 -16 -49 -13 -6 6 18 137 102 577 14 69 36 186 50 260 32 164 41 180 106
180 23 0 42 -7 53 -19z m-695 -39 c23 -22 34 -53 59 -157 17 -72 49 -204 71
-295 22 -91 60 -248 86 -350 25 -102 47 -191 48 -199 2 -17 -89 -50 -147 -54
l-40 -2 -8 55 c-4 30 -20 114 -34 185 -14 72 -32 164 -39 205 -8 41 -37 187
-65 323 -27 137 -50 257 -50 267 0 23 37 50 68 50 13 0 36 -13 51 -28z m835
-861 c24 -25 24 -15 2 -339 -9 -134 -21 -252 -26 -262 -29 -54 -109 -67 -154
-25 -32 29 -32 39 -11 335 18 240 28 288 65 308 34 17 98 8 124 -17z m251
-123 c14 -13 27 -34 28 -48 5 -57 -16 -317 -28 -346 -27 -65 -131 -70 -166 -9
-16 28 -16 44 -5 202 11 159 14 175 36 198 32 34 97 35 135 3z m-536 -44 c12
-15 21 -41 21 -58 0 -65 -54 -118 -190 -186 -247 -124 -266 -191 -104 -384 34
-41 70 -88 80 -105 9 -16 28 -35 41 -42 20 -11 26 -10 41 4 16 16 15 20 -6 61
-13 24 -53 79 -88 122 -97 115 -112 154 -76 187 21 20 271 157 285 157 5 0 6
-35 2 -90 -6 -80 -5 -94 15 -134 55 -114 208 -126 293 -24 31 38 36 40 58 28
22 -12 114 -18 149 -9 23 6 21 -444 -2 -516 -41 -129 -112 -218 -196 -243 -26
-8 -127 -12 -299 -12 -257 0 -259 0 -310 25 -78 39 -172 131 -220 216 -51 92
-98 228 -123 362 -36 183 -26 227 88 397 l77 115 60 18 c144 42 283 91 325
113 25 13 48 24 52 24 3 0 16 -12 27 -26z"/>
</g>
</svg>
